<?xml version="1.0" encoding="UTF-8"?>
<svg id="Layer_2" data-name="Layer 2" xmlns="http://www.w3.org/2000/svg" viewBox="0 0 383.28 432.96">
  <defs>
    <style>
      .cls-1 {
        isolation: isolate;
      }

      .cls-2 {
        fill: #22211f;
        fill-rule: evenodd;
      }
    </style>
  </defs>
  <g id="Shape_1" data-name="Shape 1" class="cls-1">
    <g id="Shape_1-2" data-name="Shape 1">
      <path class="cls-2" d="M346.28,102s-41.68,43.68-58,60-31.54,46.29-68,16c-41.15-34.19-10.77-64.23-7-68,3.77-3.77,31-33,31-33l34,30,38-38L237.28,0s-33.21,36.21-55,58c-22.51,22.51-60.3,87.42-25,129,45.06,53.08,60.54,69.18,97,65-.62.28.36,52.15,23,73,.28,1.13,41-41,41-41,0,0-35-45,1-81,36-36,64-64,64-64l-37-37Z"/>
    </g>
    <g id="Shape_1-3" data-name="Shape 1">
      <path class="cls-2" d="M226,245.96c-45.06-53.08-60.54-69.18-97-65,.62-.28-.36-52.15-23-73-.28-1.13-41,41-41,41,0,0,35,45-1,81L0,293.96l37,37s41.68-43.68,58-60,31.54-46.29,68-16c41.15,34.19,10.77,64.23,7,68-3.77,3.77-31,33-31,33l-34-30-38,38,79,69s33.21-36.21,55-58c22.51-22.51,60.3-87.42,25-129Z"/>
    </g>
  </g>
</svg>